<?xml version="1.0" encoding="UTF-8" standalone="no"?>
<!-- Uploaded to: SVG Repo, www.svgrepo.com, Generator: SVG Repo Mixer Tools -->

<svg
   aria-label="Docker"
   role="img"
   viewBox="0 0 512 512"
   version="1.1"
   id="svg2"
   sodipodi:docname="dockerfile_16x.svg"
   inkscape:version="1.3.2 (091e20e, 2023-11-25, custom)"
   xmlns:inkscape="http://www.inkscape.org/namespaces/inkscape"
   xmlns:sodipodi="http://sodipodi.sourceforge.net/DTD/sodipodi-0.dtd"
   xmlns="http://www.w3.org/2000/svg"
   xmlns:svg="http://www.w3.org/2000/svg">
  <defs
     id="defs2" />
  <sodipodi:namedview
     id="namedview2"
     pagecolor="#252526"
     bordercolor="#000000"
     borderopacity="0.25"
     inkscape:showpageshadow="2"
     inkscape:pageopacity="0.0"
     inkscape:pagecheckerboard="0"
     inkscape:deskcolor="#d1d1d1"
     inkscape:zoom="1.097949"
     inkscape:cx="243.18069"
     inkscape:cy="211.75847"
     inkscape:window-width="1920"
     inkscape:window-height="991"
     inkscape:window-x="-9"
     inkscape:window-y="-9"
     inkscape:window-maximized="1"
     inkscape:current-layer="svg2" />
  <path
     stroke="#066da5"
     stroke-width="44.1838"
     d="m 291.44004,220.38565 h 48.887 m -107.08581,0 h 48.887 m -105.92183,0 h 48.887 m -105.92183,0 h 47.72302 m -105.921826,0 h 48.886996 m 9.31181,-53.42842 h 47.72302 m 9.31181,0 h 48.887 m 8.14783,0 h 48.887 m -48.887,-53.42842 h 48.887"
     id="path1" />
  <path
     fill="#066da5"
     d="m 496.29984,222.70862 c 0,0 -20.95157,-19.74528 -64.01869,-12.77636 -4.6559,-33.68313 -40.73916,-53.42842 -40.73916,-53.42842 0,0 -33.75531,40.65206 -9.31181,85.95007 -6.98386,3.48446 -18.62362,8.13041 -36.08326,8.13041 H 26.05348 C 20.233599,272.65258 20.233599,419 180.86231,419 c 115.23363,0 201.36787,-53.42842 242.10703,-150.99337 60.52676,4.64595 73.3305,-45.29801 73.3305,-45.29801"
     id="path2"
     style="stroke-width:1.16273" />
</svg>
